<svg xmlns="http://www.w3.org/2000/svg" viewBox="0 0 1280 720" data-pptx-page-role="content" font-family="'Yu Gothic UI','Segoe UI',sans-serif">
  <defs>
    <marker id="arrowBlue" markerWidth="10" markerHeight="10" refX="9" refY="5" orient="auto">
      <polygon points="0,0 10,5 0,10" fill="#2B5C96" />
    </marker>
    <marker id="arrowBlueRev" markerWidth="10" markerHeight="10" refX="1" refY="5" orient="auto">
      <polygon points="10,0 0,5 10,10" fill="#2B5C96" />
    </marker>
  </defs>
  <rect x="0" y="0" width="1280" height="720" fill="#FFFFFF" />

  <g id="header" data-pptx-bounds="48 44 1184 76">
    <rect x="48" y="44" width="76" height="28" rx="14" fill="#24507F" />
    <text x="86" y="63" font-size="14" font-weight="bold" fill="#FFFFFF" text-anchor="middle">第1部</text>
    <text x="48" y="106" font-size="40" font-weight="bold" fill="#24507F">だれが何を担うのか</text>
    <line x1="48" y1="120" x2="1232" y2="120" stroke="#E2E7EC" stroke-width="1.5" />
  </g>

  <g id="lead" data-pptx-bounds="48 138 1184 40">
    <text x="48" y="166" font-size="26" fill="#1F2A37">このアプリは判断をしません。判断は AI、選ぶのはあなた、運んで検証するのがアプリです。</text>
  </g>

  <g id="role-ai" data-pptx-bounds="48 204 368 264">
    <rect x="48" y="204" width="368" height="264" rx="16" fill="#F2F6FB" />
    
  <g transform="translate(80, 232) scale(1.41667)" fill="#24507F">
    <path d="M18 3a4 4 0 0 1 4 4v8a4 4 0 0 1 -4 4h-4.724l-4.762 2.857a1 1 0 0 1 -1.508 -.743l-.006 -.114v-2h-1a4 4 0 0 1 -3.995 -3.8l-.005 -.2v-8a4 4 0 0 1 4 -4zm-2.8 9.286a1 1 0 0 0 -1.414 .014a2.5 2.5 0 0 1 -3.572 0a1 1 0 0 0 -1.428 1.4a4.5 4.5 0 0 0 6.428 0a1 1 0 0 0 -.014 -1.414m-5.69 -4.286h-.01a1 1 0 1 0 0 2h.01a1 1 0 0 0 0 -2m5 0h-.01a1 1 0 0 0 0 2h.01a1 1 0 0 0 0 -2" />
  </g>
    <text x="128" y="258" font-size="24" font-weight="bold" fill="#1F2A37">チャットAI</text>
    <text x="284" y="258" font-size="16" fill="#5D6B7A">＝ 判断する</text>
    <text fill="#1F2A37" font-size="20" x="80" y="308">・どこを直すか、どう直すかを
      </text><text fill="#1F2A37" font-size="20" x="80" y="338"><tspan>　判断する</tspan>
      </text><text fill="#1F2A37" font-size="20" x="80" y="376"><tspan>・コードを書く</tspan>
      </text><text fill="#1F2A37" font-size="20" x="80" y="414"><tspan>・改修内容を説明する</tspan>
    </text></g>

  <g id="role-you" data-pptx-bounds="456 204 368 264">
    <rect x="456" y="204" width="368" height="264" rx="16" fill="#FFFFFF" stroke="#C05B21" stroke-width="2" />
    
  <g transform="translate(488, 232) scale(1.41667)" fill="#C05B21">
    <path d="M12 2a5 5 0 1 1 -5 5l.005 -.217a5 5 0 0 1 4.995 -4.783z" />
    <path d="M14 14a5 5 0 0 1 5 5v1a2 2 0 0 1 -2 2h-10a2 2 0 0 1 -2 -2v-1a5 5 0 0 1 5 -5h4z" />
  </g>
    <text x="536" y="258" font-size="24" font-weight="bold" fill="#1F2A37">あなた</text>
    <text x="692" y="258" font-size="16" fill="#5D6B7A">＝ 選んで確かめる</text>
    <text fill="#1F2A37" font-size="20" x="488" y="300">・作業と目的を選ぶ
      </text><text fill="#1F2A37" font-size="20" x="488" y="332"><tspan>・依頼文とファイルを渡す</tspan>
      </text><text fill="#1F2A37" font-size="20" x="488" y="364"><tspan>・返答を取り込み、変更を確認</tspan>
      </text><text fill="#1F2A37" font-size="20" x="488" y="396"><tspan>・最後に Excel で動作を確認</tspan>
    </text></g>

  <g id="role-app" data-pptx-bounds="864 204 368 264">
    <rect x="864" y="204" width="368" height="264" rx="16" fill="#F2F6FB" />
    
  <g transform="translate(896, 232) scale(1.41667)" fill="#24507F">
    <path d="M12 2l.117 .007a1 1 0 0 1 .876 .876l.007 .117v4l.005 .15a2 2 0 0 0 1.838 1.844l.157 .006h4l.117 .007a1 1 0 0 1 .876 .876l.007 .117v9a3 3 0 0 1 -2.824 2.995l-.176 .005h-10a3 3 0 0 1 -2.995 -2.824l-.005 -.176v-14a3 3 0 0 1 2.824 -2.995l.176 -.005zm-1.553 11.106a1 1 0 0 0 -1.341 .447l-1 2a1 1 0 0 0 0 .894l1 2a1 1 0 0 0 1.341 .447l.102 -.058a1 1 0 0 0 .345 -1.283l-.776 -1.553l.776 -1.553a1 1 0 0 0 -.447 -1.341m4.447 .447a1 1 0 0 0 -1.341 -.447l-.102 .058a1 1 0 0 0 -.345 1.283l.774 1.553l-.775 1.553a1 1 0 0 0 1.788 .894l1 -2a1 1 0 0 0 0 -.894z" />
    <path d="M19 7h-4l-.001 -4.001z" />
  </g>
    <text x="944" y="258" font-size="24" font-weight="bold" fill="#1F2A37">MacroStudio</text>
    <text x="1100" y="258" font-size="16" fill="#5D6B7A">＝ 運んで検証</text>
    <text fill="#1F2A37" font-size="20" x="896" y="308">・コードを取り出して運ぶ
      </text><text fill="#1F2A37" font-size="20" x="896" y="340"><tspan>・返答を機械的に検証する</tspan>
      </text><text fill="#1F2A37" font-size="20" x="896" y="372"><tspan>・別ファイルへ書き戻し、</tspan>
      </text><text fill="#1F2A37" font-size="20" x="896" y="402"><tspan>　読み直して確認する</tspan>
    </text></g>

  <g id="role-links" data-pptx-bounds="404 320 472 40">
    <line x1="420" y1="336" x2="452" y2="336" stroke="#CFD7DE" stroke-width="3" />
    <line x1="828" y1="336" x2="860" y2="336" stroke="#CFD7DE" stroke-width="3" />
  </g>

  <g id="takeaway" data-pptx-bounds="48 510 1184 120">
    <rect x="48" y="510" width="1184" height="120" rx="16" fill="#FFFFFF" stroke="#3A7A47" stroke-width="1.5" />
    
  <g transform="translate(76, 546) scale(1.16667)" fill="#3A7A47">
    <path d="M17 3.34a10 10 0 1 1 -14.995 8.984l-.005 -.324l.005 -.324a10 10 0 0 1 14.995 -8.336zm-1.293 5.953a1 1 0 0 0 -1.32 -.083l-.094 .083l-3.293 3.292l-1.293 -1.292l-.094 -.083a1 1 0 0 0 -1.403 1.403l.083 .094l2 2l.094 .083a1 1 0 0 0 1.226 0l.094 -.083l4 -4l.083 -.094a1 1 0 0 0 -.083 -1.32z" />
  </g>
    <text x="120" y="558" font-size="22" fill="#1F2A37">コードの中身を判断する場面は、あなたには回ってきません。あなたが見るのは、</text>
    <text x="120" y="594" font-size="22" fill="#1F2A37">「何が変わるか」（画面の差分）と「業務でいつもどおり動くか」（Excel での確認）です。</text>
  </g>

  <g id="footer" data-pptx-role="footer" data-pptx-bounds="48 668 1184 32">
    <text x="48" y="692" font-size="14" fill="#5D6B7A">第1部　MacroStudioを知る</text>
    <text x="1232" y="692" font-size="14" fill="#5D6B7A" text-anchor="end">04</text>
  </g>
</svg>